<?xml version="1.0" encoding="utf-8"?>
<!-- Generator: Adobe Illustrator 21.0.0, SVG Export Plug-In . SVG Version: 6.00 Build 0)  -->
<svg version="1.1" id="Layer_1" xmlns="http://www.w3.org/2000/svg" xmlns:xlink="http://www.w3.org/1999/xlink" x="0px" y="0px"
	 viewBox="0 0 157.2 71" style="enable-background:new 0 0 157.2 71;" xml:space="preserve">
<style type="text/css">
	.st0{fill:#3B9F47;}
	.st1{fill-rule:evenodd;clip-rule:evenodd;fill:#4D4D4D;}
	.st2{fill:#4D4D4D;}
</style>
<g>
	<path class="st0" d="M91.6,12.9v0.8c-6.8,0-12.4,5.6-12.4,12.4v0.4l-0.9,0v-0.2v-0.2c0-6.8-5.5-12.4-12.3-12.4l-0.4,0v-0.4l0.4,0
		l0-0.4c4.7,0,8.8,2.5,11.1,6.2c-1-2.3-2.4-4.1-3.7-5.5c-2.5-2.6-5.3-4.4-6.7-5l0.3-0.7c1.7,0.7,6.7,3.8,9.7,8.8
		c-1.9-5.2-4.9-10-7.4-12.2L69.9,4c2.7,2.4,6.1,7.7,7.9,13.4c-1-7.5-3-14.1-3.9-15.9l0.7-0.4c0.9,1.7,2.7,7.5,3.8,14.3V0.5h0.8V16
		c1-7.1,2.9-13.1,3.8-14.8l0.7,0.4c-1,1.8-3,8.4-3.9,15.9c1.9-5.7,5.3-11.1,7.9-13.4l0.5,0.6c-2.5,2.2-5.6,6.9-7.4,12.2
		c3-5,8-8.1,9.7-8.8l0.3,0.7c-1.3,0.6-4.2,2.3-6.7,5c-1.3,1.4-2.7,3.2-3.7,5.5C82.7,15.4,86.9,12.9,91.6,12.9"/>
</g>
<path class="st1" d="M14,44.5c0-5.7,4.4-10.1,10.1-10.1c5.7,0,10.2,4.5,10.2,10.1c0,5.6-4.5,10.1-10.2,10.1
	C18.4,54.6,14,50.2,14,44.5 M15.4,44.5c0,5,3.8,8.8,8.8,8.8c4.9,0,8.8-3.9,8.8-8.8c0-4.9-3.9-8.8-8.8-8.8
	C19.2,35.7,15.4,39.5,15.4,44.5 M135.7,44.5c0-5.6,4.5-10.1,10.2-10.1c5.7,0,10.2,4.5,10.2,10.1c0,5.6-4.5,10.1-10.2,10.1
	C140.2,54.6,135.7,50.1,135.7,44.5 M137.1,44.5c0,5,3.8,8.8,8.8,8.8c4.9,0,8.8-3.8,8.8-8.8c0-4.9-3.8-8.8-8.8-8.8
	C141,35.7,137.1,39.5,137.1,44.5 M104.5,52.4c0,0.4,0,0.9,0,1.3c0,0.2,0,0.4,0.2,0.5c0.7,0.3,1.1,0,1.1-0.8c0-5.3,0-10.6,0-15.9
	c0-0.2-0.1-0.4,0.1-0.5c0.2-0.1,0.3,0.1,0.4,0.2c3.1,2.4,6.2,4.8,9.3,7.2c0.4,0.3,0.5,0.6,0.5,1.1c0,1.5,0,2.9,0,4.4
	c0,1.2,0,2.5,0,3.7c0,0.2,0,0.5,0.2,0.6c0.6,0.3,1.2,0,1.2-0.7c0-6,0-12,0-18c0-0.2,0-0.3,0-0.5c0-0.1-0.1-0.2-0.2-0.3
	c-0.7-0.3-1.2,0-1.2,0.8c0,2.4,0,4.7,0,7.1c0,0.2,0.1,0.4-0.1,0.4c-0.2,0.1-0.3-0.1-0.4-0.2c-3.1-2.4-6.3-4.9-9.4-7.3
	c-0.4-0.3-0.9-0.7-1.3-1c-0.2-0.2-0.4-0.1-0.4,0.2c0,0.2,0,0.3,0,0.5c0,3,0,6.1,0,9.1C104.5,47,104.5,49.7,104.5,52.4 M65.4,54.3
	c-0.4,0.1-0.7-0.1-0.8-0.6c-0.4-1-0.8-2-1.2-3c-0.1-0.3-0.3-0.4-0.6-0.4c-3.2,0-6.4,0-9.5,0c-0.4,0-0.6,0.2-0.7,0.5
	c-0.4,1-0.8,2-1.2,3c-0.2,0.4-1.1,0.7-1.5,0.5c-0.2-0.2-0.1-0.3,0-0.5c0.6-1.3,1.1-2.7,1.7-4c2-4.9,4.1-9.9,6.1-14.8
	c0-0.1,0.1-0.2,0.1-0.3c0.1-0.2,0.3-0.3,0.4,0c0.2,0.4,0.4,0.8,0.5,1.2c1.4,3.5,2.9,6.9,4.3,10.4c1,2.4,2,4.8,3,7.2
	C66.3,54.2,66.3,54.3,65.4,54.3 M58,37.7c-0.1,0.1-0.1,0.2-0.2,0.3c-1.5,3.5-2.9,7-4.4,10.6c-0.2,0.4,0,0.5,0.4,0.5
	c2.7,0,5.5,0,8.2,0c0.6,0,0.6,0,0.4-0.6c-1.4-3.3-2.7-6.7-4.1-10C58.2,38.2,58.1,37.9,58,37.7 M90.4,36.7c0-0.5,0.2-0.7,0.7-0.7
	c2.3,0,4.7,0,7,0c0.5,0,0.7-0.1,0.7-0.6c0-0.5-0.1-0.7-0.7-0.7c-2.8,0-5.6,0-8.4,0c-0.5,0-0.7,0.2-0.7,0.7c0,6.1,0,12.2,0,18.2
	c0,0.5,0.2,0.7,0.7,0.7c2,0,4,0,6.1,0c1,0,1.9,0,2.9,0c0.2,0,0.4,0,0.5-0.3c0.2-0.7,0-1-0.7-1c-2.4,0-4.8,0-7.3,0
	c-0.7,0-0.7,0-0.7-0.7c0-1.1,0-2.3,0-3.4c0-0.5,0.2-0.6,0.6-0.6c1.8,0,3.5,0,5.3,0c0.5,0,0.7-0.2,0.7-0.7c0-0.6-0.1-0.7-0.7-0.7
	c-1.8,0-3.6,0-5.4,0c-0.4,0-0.6-0.1-0.6-0.6c0-1.6,0-3.2,0-4.8C90.4,39.9,90.5,38.3,90.4,36.7 M75.1,50.9c-0.9-2.2-1.9-4.5-2.8-6.7
	c-1.2-3-2.5-6-3.7-9.1c-0.1-0.3-0.2-0.4-0.5-0.4c-1.1-0.1-1.2,0-0.7,1c0,0,0,0,0,0c1.7,4,3.3,8,5,12c0.9,2.1,1.8,4.3,2.7,6.4
	c0.1,0.1,0.1,0.3,0.3,0.4c0.2,0,0.2-0.2,0.3-0.3c0.7-1.6,1.3-3.2,2-4.8c1.4-3.5,2.9-6.9,4.3-10.4c0.5-1.2,1-2.5,1.5-3.7
	c0.1-0.2,0.3-0.4-0.1-0.5c-0.5-0.2-1.2,0-1.4,0.5c-2.1,5-4.2,10.1-6.2,15.1c-0.1,0.3-0.2,0.5-0.4,0.9C75.2,51.1,75.2,51,75.1,50.9
	 M7.9,44.9c-0.7-0.7-1.4-1.3-2.3-1.8c-0.8-0.4-1.6-0.9-2.2-1.6c-1.3-1.4-1.4-4.6,1.5-5.3c0.4-0.1,0.7-0.1,1.1-0.2
	c0.6,0,0.5-0.5,0.5-0.9c0-0.5-0.3-0.5-0.7-0.4c-0.3,0-0.6,0.1-0.9,0.1c-1.7,0.4-3.1,1.3-3.6,3c-0.5,1.8-0.2,3.4,1.2,4.8
	c0.6,0.6,1.3,1,2.1,1.4c0.8,0.4,1.5,0.9,2.2,1.6c1.6,1.8,1.6,5.8-1.8,6.9c-0.6,0.2-1.2,0.3-1.8,0.3c-0.6,0.1-0.4,0.5-0.5,0.9
	c0,0.4,0.3,0.5,0.6,0.5c0.3,0,0.7-0.1,1-0.1c2.9-0.5,4.8-2.7,4.8-5.7C9.2,47.3,8.8,46,7.9,44.9 M41.9,51.3c0,0.8,0,1.6,0,2.4
	c0,0.2,0,0.4,0.3,0.5c0.8,0.2,1.1,0,1.1-0.8c0-0.2,0-0.4,0-0.5c0-5.4,0-10.8,0-16.2c0-0.7,0-0.7,0.7-0.7c0.8,0,1.7,0,2.5,0
	c0.5,0,0.5-0.3,0.5-0.7c0-0.4-0.1-0.6-0.5-0.6c-2.6,0-5.2,0-7.8,0c-0.5,0-0.5,0.3-0.6,0.7c0,0.4,0.1,0.7,0.6,0.6c0.8,0,1.7,0,2.5,0
	c0.5,0,0.7,0.2,0.7,0.7c0,2.8,0,5.6,0,8.4C41.9,47.2,41.9,49.3,41.9,51.3 M128.2,36.9c0-0.8,0-0.8,0.9-0.8c0.8,0,1.6,0,2.4,0
	c0.5,0,0.5-0.3,0.5-0.6c0-0.4,0-0.7-0.5-0.7c-2.6,0-5.2,0-7.8,0c-0.5,0-0.5,0.3-0.6,0.7c0,0.4,0.1,0.7,0.6,0.6c0.7,0,1.4,0,2.2,0
	c1,0,1,0,1,1c0,5.4,0,10.9,0,16.3c0,0.2,0,0.4,0,0.6c0,0.1,0,0.3,0.2,0.3c0.3,0.1,0.7,0.1,1,0c0.3-0.1,0.2-0.4,0.2-0.7
	c0-2.8,0-5.6,0-8.4C128.2,42.4,128.2,39.6,128.2,36.9"/>
<polygon class="st2" points="33.9,66.1 34.5,66.1 34.5,70 36.3,70 36.3,70.4 33.9,70.4 "/>
<path class="st2" d="M39.3,66.1v2.5c0,1,0.4,1.4,1,1.4c0.6,0,1-0.4,1-1.4v-2.5h0.6v2.5c0,1.3-0.7,1.9-1.6,1.9
	c-0.9,0-1.5-0.5-1.5-1.8v-2.5H39.3z"/>
<path class="st2" d="M47.3,70.4l-0.5-1c-0.2-0.4-0.4-0.6-0.5-0.8h0c-0.1,0.2-0.2,0.5-0.5,0.9l-0.5,0.9h-0.6l1.3-2.2l-1.3-2.1h0.6
	l0.6,1c0.2,0.3,0.3,0.5,0.4,0.7h0c0.1-0.3,0.2-0.5,0.4-0.7l0.6-1h0.6l-1.3,2.1l1.3,2.2H47.3z"/>
<path class="st2" d="M51.1,66.1v2.5c0,1,0.4,1.4,1,1.4c0.6,0,1-0.4,1-1.4v-2.5h0.6v2.5c0,1.3-0.7,1.9-1.6,1.9
	c-0.9,0-1.5-0.5-1.5-1.8v-2.5H51.1z"/>
<path class="st2" d="M56.8,66.2c0.3-0.1,0.7-0.1,1.1-0.1c0.6,0,1,0.1,1.2,0.4c0.2,0.2,0.3,0.5,0.3,0.8c0,0.6-0.4,0.9-0.8,1.1v0
	c0.3,0.1,0.5,0.4,0.6,0.9c0.1,0.6,0.2,1,0.3,1.2H59c-0.1-0.1-0.2-0.5-0.3-1c-0.1-0.6-0.4-0.8-0.9-0.8h-0.5v1.9h-0.6V66.2z
	 M57.3,68.1h0.6c0.6,0,1-0.3,1-0.8c0-0.6-0.4-0.8-1-0.8c-0.3,0-0.5,0-0.5,0.1V68.1z"/>
<path class="st2" d="M63.1,70.4v-1.8l-1.4-2.5h0.6l0.6,1.2c0.2,0.3,0.3,0.6,0.4,0.9h0c0.1-0.3,0.3-0.6,0.4-0.9l0.6-1.2h0.6l-1.4,2.5
	v1.8H63.1z"/>
<path class="st2" d="M71,66.2c0.3-0.1,0.7-0.1,1.1-0.1c0.6,0,1,0.1,1.2,0.4c0.2,0.2,0.3,0.5,0.3,0.8c0,0.6-0.4,0.9-0.8,1.1v0
	c0.3,0.1,0.5,0.4,0.6,0.9c0.1,0.6,0.2,1,0.3,1.2h-0.6c-0.1-0.1-0.2-0.5-0.3-1c-0.1-0.6-0.4-0.8-0.9-0.8h-0.5v1.9H71V66.2z
	 M71.6,68.1h0.6c0.6,0,1-0.3,1-0.8c0-0.6-0.4-0.8-1-0.8c-0.3,0-0.5,0-0.5,0.1V68.1z"/>
<polygon class="st2" points="78.7,68.4 77.1,68.4 77.1,70 78.9,70 78.9,70.4 76.5,70.4 76.5,66.1 78.8,66.1 78.8,66.6 77.1,66.6 
	77.1,68 78.7,68 "/>
<path class="st2" d="M81.6,69.8c0.2,0.2,0.6,0.3,1,0.3c0.6,0,0.9-0.3,0.9-0.7c0-0.4-0.2-0.6-0.8-0.9c-0.7-0.2-1.1-0.6-1.1-1.2
	c0-0.7,0.6-1.2,1.4-1.2c0.4,0,0.8,0.1,1,0.2l-0.2,0.5c-0.1-0.1-0.4-0.2-0.8-0.2c-0.6,0-0.8,0.4-0.8,0.6c0,0.4,0.3,0.6,0.9,0.8
	c0.7,0.3,1.1,0.6,1.1,1.3c0,0.7-0.5,1.2-1.5,1.2c-0.4,0-0.9-0.1-1.1-0.3L81.6,69.8z"/>
<rect x="86.9" y="66.1" class="st2" width="0.6" height="4.3"/>
<path class="st2" d="M90.4,66.2c0.3-0.1,0.7-0.1,1.2-0.1c0.8,0,1.4,0.2,1.7,0.5c0.4,0.4,0.6,0.8,0.6,1.5c0,0.7-0.2,1.3-0.6,1.7
	c-0.4,0.4-1.1,0.6-1.9,0.6c-0.4,0-0.7,0-1-0.1V66.2z M91,70c0.1,0,0.3,0,0.6,0c1.2,0,1.8-0.7,1.8-1.8c0-1-0.6-1.7-1.7-1.7
	c-0.3,0-0.5,0-0.7,0.1V70z"/>
<polygon class="st2" points="99,68.4 97.3,68.4 97.3,70 99.2,70 99.2,70.4 96.7,70.4 96.7,66.1 99.1,66.1 99.1,66.6 97.3,66.6 
	97.3,68 99,68 "/>
<path class="st2" d="M101.9,70.4v-4.3h0.6l1.4,2.2c0.3,0.5,0.6,1,0.8,1.4l0,0c-0.1-0.6-0.1-1.1-0.1-1.8v-1.8h0.5v4.3h-0.6l-1.4-2.2
	c-0.3-0.5-0.6-1-0.8-1.4l0,0c0,0.5,0,1.1,0,1.8v1.8H101.9z"/>
<path class="st2" d="M111.2,70.3c-0.2,0.1-0.6,0.2-1.1,0.2c-1.2,0-2.1-0.8-2.1-2.2c0-1.3,0.9-2.3,2.2-2.3c0.5,0,0.9,0.1,1,0.2
	l-0.1,0.5c-0.2-0.1-0.5-0.2-0.9-0.2c-1,0-1.7,0.6-1.7,1.8c0,1.1,0.6,1.7,1.7,1.7c0.3,0,0.7-0.1,0.9-0.2L111.2,70.3z"/>
<polygon class="st2" points="116.1,68.4 114.4,68.4 114.4,70 116.3,70 116.3,70.4 113.9,70.4 113.9,66.1 116.2,66.1 116.2,66.6 
	114.4,66.6 114.4,68 116.1,68 "/>
<path class="st2" d="M119,69.8c0.2,0.2,0.6,0.3,1,0.3c0.6,0,0.9-0.3,0.9-0.7c0-0.4-0.2-0.6-0.8-0.9c-0.7-0.2-1.1-0.6-1.1-1.2
	c0-0.7,0.6-1.2,1.4-1.2c0.4,0,0.8,0.1,1,0.2l-0.2,0.5c-0.1-0.1-0.4-0.2-0.8-0.2c-0.6,0-0.8,0.4-0.8,0.6c0,0.4,0.3,0.6,0.9,0.8
	c0.7,0.3,1.1,0.6,1.1,1.3c0,0.7-0.5,1.2-1.5,1.2c-0.4,0-0.9-0.1-1.1-0.3L119,69.8z"/>
</svg>
