<?xml version="1.0" encoding="utf-8"?>
<!-- Generator: Adobe Illustrator 21.0.0, SVG Export Plug-In . SVG Version: 6.00 Build 0)  -->
<svg version="1.1" id="Layer_1" xmlns="http://www.w3.org/2000/svg" xmlns:xlink="http://www.w3.org/1999/xlink" x="0px" y="0px"
	 viewBox="0 0 538.7 254.7" style="enable-background:new 0 0 538.7 254.7;" xml:space="preserve">
<style type="text/css">
	.st0{fill-rule:evenodd;clip-rule:evenodd;fill:#FFFFFF;}
	.st1{fill:#FFFFFF;}
	.st2{clip-path:url(#SVGID_2_);}
</style>
<g>
	<g>
		<path class="st0" d="M47,157c0-19.3,15.1-34.4,34.6-34.4c19.3,0,34.9,15.2,34.9,34.3c0,19.2-15.5,34.5-34.8,34.5
			C62.2,191.4,47,176.3,47,157 M51.8,156.9c0,17,12.9,30,29.8,30c16.7,0,30.1-13.2,30.1-29.9c0-16.7-13.3-30-30-30
			C64.7,127,51.8,140,51.8,156.9 M461.9,156.8c0-19.1,15.4-34.3,34.8-34.3c19.3,0,34.7,15.3,34.6,34.4c0,19.2-15.4,34.4-34.7,34.4
			C477.2,191.4,461.9,176.1,461.9,156.8 M466.7,156.9c0,16.9,13,30,29.9,30c16.8,0.1,30-13.1,30-29.9c0-16.9-13.1-30-29.9-30
			C479.9,127,466.7,140.1,466.7,156.9 M355.7,184.1c0,1.5,0,3,0,4.5c0,0.7,0.1,1.3,0.8,1.6c2.3,0.9,3.9-0.1,3.9-2.6
			c0-18.1,0-36.1,0-54.2c0-0.6-0.3-1.4,0.3-1.7c0.6-0.3,1,0.4,1.5,0.8c10.5,8.2,21,16.4,31.6,24.5c1.3,1,1.8,2.1,1.7,3.6
			c-0.1,5,0,9.9,0,14.9c0,4.2,0,8.4,0,12.6c0,0.8-0.1,1.6,0.8,2c2.2,1,4-0.1,4-2.5c0-20.5,0-40.9,0-61.4c0-0.5,0-1.1-0.1-1.6
			c0-0.5-0.3-0.7-0.7-0.9c-2.4-0.9-4,0.1-4,2.6c0,8,0,16,0,24.1c0,0.5,0.2,1.2-0.3,1.5c-0.6,0.4-1.1-0.3-1.5-0.7
			c-10.7-8.3-21.5-16.7-32.2-25c-1.5-1.2-3-2.3-4.6-3.5c-0.7-0.5-1.2-0.4-1.3,0.6c0,0.5,0,1.1,0,1.6c0,10.4,0,20.7,0,31.1
			C355.7,165.4,355.7,174.7,355.7,184.1 M222.3,190.3c-1.4,0.3-2.2-0.5-2.8-2c-1.3-3.5-2.8-6.8-4.2-10.3c-0.4-1-1-1.5-2.1-1.5
			c-10.8,0-21.7,0-32.5,0c-1.3,0-1.9,0.6-2.4,1.7c-1.4,3.5-2.8,6.9-4.2,10.3c-0.6,1.5-3.6,2.5-4.9,1.6c-0.8-0.5-0.2-1.2,0-1.8
			c1.9-4.6,3.8-9.2,5.8-13.7c7-16.8,13.9-33.6,20.9-50.4c0.1-0.3,0.3-0.7,0.4-1c0.5-0.8,0.9-0.9,1.3,0c0.6,1.4,1.2,2.7,1.8,4.1
			c4.9,11.8,9.8,23.7,14.7,35.5c3.4,8.2,6.9,16.4,10.3,24.7C225.4,190.2,225.2,190.3,222.3,190.3 M196.9,133.7
			c-0.3,0.5-0.5,0.7-0.6,1c-5,12-9.9,24-14.9,36c-0.6,1.5,0.1,1.6,1.3,1.6c9.3,0,18.7,0,28,0c2,0,2.1-0.1,1.3-2
			c-4.7-11.3-9.3-22.7-14-34C197.7,135.3,197.4,134.6,196.9,133.7 M307.6,130.4c0-1.8,0.6-2.3,2.4-2.3c8,0.1,15.9,0,23.9,0.1
			c1.6,0,2.2-0.5,2.2-2.2c0-1.6-0.4-2.4-2.2-2.3c-9.6,0.1-19.2,0.1-28.7,0c-1.7,0-2.3,0.6-2.3,2.3c0,20.7,0,41.4,0,62.1
			c0,1.7,0.6,2.3,2.3,2.3c6.9-0.1,13.8,0,20.6,0c3.3,0,6.6,0,9.9,0c0.7,0,1.4,0,1.7-0.9c0.7-2.3-0.1-3.5-2.5-3.5
			c-8.3,0-16.5,0-24.8,0c-2.4,0-2.4,0-2.4-2.3c0-3.9,0.1-7.8,0-11.7c0-1.7,0.6-2.1,2.2-2.1c6,0.1,12.1,0,18.1,0.1
			c1.7,0,2.3-0.6,2.3-2.3c-0.1-2.2-0.2-2.4-2.3-2.4c-6.1,0-12.2,0-18.3,0c-1.5,0-2-0.5-2-2c0.1-5.4,0-10.9,0-16.3
			C307.6,141.3,307.7,135.8,307.6,130.4 M255.4,178.8c-3.2-7.6-6.4-15.2-9.5-22.9c-4.2-10.3-8.5-20.6-12.7-30.9
			c-0.3-0.9-0.8-1.4-1.8-1.4c-3.7-0.2-3.9,0-2.4,3.4c0,0.1,0.1,0.1,0.1,0.2c5.7,13.6,11.4,27.3,17.1,40.9c3,7.3,6,14.6,9.1,21.9
			c0.2,0.5,0.3,1.2,0.9,1.2c0.7,0,0.7-0.7,0.9-1.2c2.3-5.5,4.6-10.9,6.9-16.4c4.9-11.8,9.8-23.6,14.8-35.5c1.7-4.2,3.5-8.4,5.2-12.6
			c0.2-0.6,0.9-1.3-0.2-1.8c-1.8-0.8-4.1,0.1-4.8,1.9c-7.1,17.2-14.2,34.4-21.2,51.6c-0.4,0.9-0.8,1.8-1.4,3.1
			C255.7,179.6,255.5,179.2,255.4,178.8 M26.2,158.5c-2.3-2.5-4.9-4.6-7.8-6.2c-2.7-1.5-5.4-3.1-7.6-5.4c-4.5-4.7-4.6-15.7,5.3-18.1
			c1.2-0.3,2.5-0.5,3.7-0.6c2.1-0.1,1.8-1.6,1.8-3c0-1.6-1.1-1.6-2.3-1.5c-1.1,0.1-2.2,0.2-3.2,0.4c-5.8,1.4-10.5,4.3-12.2,10.3
			c-1.7,6.1-0.6,11.7,4.2,16.3c2.1,2,4.5,3.5,7,4.9c2.7,1.5,5.3,3.1,7.3,5.4c5.4,6,5.4,19.8-6,23.5c-2,0.7-4.1,1-6.2,1.2
			c-2.1,0.2-1.5,1.7-1.6,2.9c-0.1,1.5,0.9,1.7,2,1.6c1.2-0.1,2.4-0.2,3.6-0.4c9.7-1.6,16.4-9.2,16.5-19.4
			C30.6,166.4,29.4,162.1,26.2,158.5 M142.2,180.3c0,2.7,0,5.5,0,8.3c0,0.7,0,1.4,0.9,1.7c2.7,0.7,3.8-0.1,3.8-2.8
			c0-0.6,0-1.2,0-1.8c0-18.4,0-36.7,0-55.1c0-2.4,0.1-2.4,2.4-2.4c2.8,0,5.6-0.1,8.4,0c1.8,0.1,1.8-1.1,1.8-2.4
			c0-1.3-0.3-2.1-1.9-2.1c-8.9,0-17.7,0.1-26.6,0c-1.8,0-1.9,1-1.9,2.3c0,1.4,0.3,2.2,2,2.2c2.9-0.1,5.7,0.1,8.6-0.1
			c1.8-0.1,2.3,0.6,2.3,2.4c-0.1,9.6,0,19.1,0,28.7C142.2,166.2,142.2,173.3,142.2,180.3 M436.2,131c0-2.9,0-2.9,3-2.9
			c2.7,0,5.4-0.1,8.1,0c1.6,0,1.8-0.9,1.8-2.2c0-1.3-0.1-2.3-1.9-2.3c-8.9,0.1-17.7,0.1-26.6,0c-1.8,0-1.9,0.9-1.9,2.3
			c0,1.4,0.3,2.3,2,2.2c2.4-0.1,4.9,0,7.4,0c3.4,0,3.4,0,3.4,3.3c0,18.5,0,37.1,0,55.6c0,0.7,0,1.3,0.1,2c0,0.4,0.1,0.9,0.5,1.1
			c1.2,0.4,2.4,0.4,3.5,0c1-0.3,0.6-1.4,0.6-2.2c0-9.6,0-19.1,0-28.7C436.2,149.8,436.2,140.4,436.2,131"/>
		<polygon class="st1" points="114.9,230.7 116.8,230.7 116.8,243.8 123.1,243.8 123.1,245.4 114.9,245.4 		"/>
		<path class="st1" d="M133.3,230.7v8.7c0,3.3,1.5,4.7,3.4,4.7c2.2,0,3.6-1.4,3.6-4.7v-8.7h1.9v8.5c0,4.5-2.4,6.4-5.5,6.4
			c-3,0-5.3-1.7-5.3-6.3v-8.6H133.3z"/>
		<path class="st1" d="M160.4,245.4l-1.9-3.2c-0.8-1.2-1.2-2-1.7-2.9h0c-0.4,0.8-0.8,1.6-1.6,2.9l-1.8,3.2h-2.2l4.5-7.4l-4.3-7.2
			h2.2l1.9,3.4c0.5,1,1,1.7,1.3,2.5h0.1c0.4-0.9,0.8-1.5,1.3-2.5l2-3.4h2.2l-4.5,7.1l4.6,7.5H160.4z"/>
		<path class="st1" d="M173.7,230.7v8.7c0,3.3,1.5,4.7,3.4,4.7c2.2,0,3.6-1.4,3.6-4.7v-8.7h1.9v8.5c0,4.5-2.4,6.4-5.5,6.4
			c-3,0-5.3-1.7-5.3-6.3v-8.6H173.7z"/>
		<path class="st1" d="M192.8,230.9c1-0.2,2.3-0.3,3.6-0.3c2,0,3.3,0.4,4.2,1.2c0.7,0.7,1.2,1.7,1.2,2.8c0,1.9-1.2,3.2-2.8,3.7v0.1
			c1.1,0.4,1.8,1.4,2.2,3c0.5,2,0.8,3.5,1.1,4h-2c-0.2-0.4-0.6-1.7-1-3.5c-0.4-2-1.2-2.8-2.9-2.9h-1.8v6.4h-1.9V230.9z M194.7,237.6
			h1.9c2,0,3.3-1.1,3.3-2.8c0-1.9-1.4-2.7-3.4-2.7c-0.9,0-1.6,0.1-1.9,0.2V237.6z"/>
		<path class="st1" d="M214.5,245.4v-6.2l-4.6-8.4h2.2l2.1,4c0.6,1.1,1,2,1.5,3h0c0.4-1,0.9-1.9,1.5-3l2.1-4h2.2l-4.9,8.4v6.2H214.5
			z"/>
		<path class="st1" d="M241.5,230.9c1-0.2,2.3-0.3,3.6-0.3c2,0,3.3,0.4,4.2,1.2c0.7,0.7,1.2,1.7,1.2,2.8c0,1.9-1.2,3.2-2.8,3.7v0.1
			c1.1,0.4,1.8,1.4,2.2,3c0.5,2,0.8,3.5,1.1,4h-2c-0.2-0.4-0.6-1.7-1-3.5c-0.4-2-1.2-2.8-2.9-2.9h-1.8v6.4h-1.9V230.9z M243.4,237.6
			h1.9c2,0,3.3-1.1,3.3-2.8c0-1.9-1.4-2.7-3.4-2.7c-0.9,0-1.6,0.1-1.9,0.2V237.6z"/>
		<polygon class="st1" points="267.7,238.5 262.1,238.5 262.1,243.8 268.4,243.8 268.4,245.4 260.2,245.4 260.2,230.7 268.1,230.7 
			268.1,232.3 262.1,232.3 262.1,236.9 267.7,236.9 		"/>
		<path class="st1" d="M277.6,243.1c0.8,0.5,2.1,1,3.4,1c1.9,0,3.1-1,3.1-2.5c0-1.4-0.8-2.2-2.8-2.9c-2.4-0.9-3.9-2.1-3.9-4.2
			c0-2.3,1.9-4,4.7-4c1.5,0,2.6,0.3,3.2,0.7l-0.5,1.5c-0.5-0.3-1.5-0.7-2.8-0.7c-2,0-2.8,1.2-2.8,2.2c0,1.4,0.9,2,2.9,2.8
			c2.5,1,3.7,2.2,3.7,4.3c0,2.3-1.7,4.2-5.1,4.2c-1.4,0-3-0.4-3.7-0.9L277.6,243.1z"/>
		<rect x="295.5" y="230.7" class="st1" width="1.9" height="14.7"/>
		<path class="st1" d="M307.6,230.9c1.2-0.2,2.5-0.3,4-0.3c2.7,0,4.7,0.6,5.9,1.8c1.3,1.2,2.1,2.9,2.1,5.3c0,2.4-0.7,4.3-2.1,5.7
			c-1.4,1.4-3.6,2.1-6.5,2.1c-1.4,0-2.5-0.1-3.4-0.2V230.9z M309.5,243.9c0.5,0.1,1.2,0.1,1.9,0.1c4,0,6.2-2.3,6.2-6.2
			c0-3.5-1.9-5.7-5.9-5.7c-1,0-1.7,0.1-2.2,0.2V243.9z"/>
		<polygon class="st1" points="336.7,238.5 331,238.5 331,243.8 337.3,243.8 337.3,245.4 329.1,245.4 329.1,230.7 337,230.7 
			337,232.3 331,232.3 331,236.9 336.7,236.9 		"/>
		<path class="st1" d="M346.7,245.4v-14.7h2.1l4.7,7.4c1.1,1.7,1.9,3.3,2.6,4.8l0,0c-0.2-2-0.2-3.7-0.2-6v-6.1h1.8v14.7h-1.9
			l-4.7-7.4c-1-1.6-2-3.3-2.7-4.9l-0.1,0c0.1,1.8,0.2,3.6,0.2,6v6.3H346.7z"/>
		<path class="st1" d="M378.2,244.9c-0.7,0.4-2.1,0.7-3.9,0.7c-4.1,0-7.2-2.6-7.2-7.4c0-4.6,3.1-7.7,7.7-7.7c1.8,0,3,0.4,3.5,0.7
			l-0.5,1.5c-0.7-0.3-1.7-0.6-3-0.6c-3.4,0-5.7,2.2-5.7,6c0,3.6,2.1,5.9,5.6,5.9c1.2,0,2.3-0.2,3.1-0.6L378.2,244.9z"/>
		<polygon class="st1" points="395.2,238.5 389.5,238.5 389.5,243.8 395.8,243.8 395.8,245.4 387.6,245.4 387.6,230.7 395.5,230.7 
			395.5,232.3 389.5,232.3 389.5,236.9 395.2,236.9 		"/>
		<path class="st1" d="M405,243.1c0.8,0.5,2.1,1,3.4,1c1.9,0,3.1-1,3.1-2.5c0-1.4-0.8-2.2-2.8-2.9c-2.4-0.9-3.9-2.1-3.9-4.2
			c0-2.3,1.9-4,4.7-4c1.5,0,2.6,0.3,3.2,0.7l-0.5,1.5c-0.5-0.3-1.5-0.7-2.8-0.7c-2,0-2.8,1.2-2.8,2.2c0,1.4,0.9,2,2.9,2.8
			c2.5,1,3.7,2.2,3.7,4.3c0,2.3-1.7,4.2-5.1,4.2c-1.4,0-3-0.4-3.7-0.9L405,243.1z"/>
	</g>
	<g>
		<defs>
			<path id="SVGID_1_" d="M266.4,8.5v49.1c-3.5-22.5-9.3-41.4-12.4-47.1l-2.3,1.2c3.3,6,9.8,27.7,13,52.4
				c-6.1-18.9-17.3-36.5-26.1-44.2l-1.7,1.9c8.1,7.1,18.3,22.8,24.4,40c-9.8-16.5-26.2-26.5-31.9-28.9l-1,2.4
				c4.4,1.8,13.8,7.7,22,16.4c4.2,4.5,8.9,10.6,12.1,18.1c-7.6-12.2-21.2-20.5-36.6-20.5l0,1.3h-1.3v1.3l1.3,0
				c22.4,0.1,40.6,18.5,40.6,40.8v0.7v0.5l2.8,0v-1.3c0-22.5,18.3-40.8,40.8-40.8v-2.6c-15.5,0-29.1,8.2-36.8,20.4
				c3.2-7.5,7.8-13.5,12-18c8.1-8.7,17.6-14.6,22-16.4l-1-2.4c-5.7,2.4-22.1,12.4-31.9,28.9c6.1-17.2,16.3-32.9,24.4-40l-1.7-1.9
				c-8.8,7.7-20,25.3-26.1,44.2c3.2-24.8,9.7-46.4,13-52.4l-2.3-1.2c-3.1,5.8-9.2,25.6-12.6,48.9V8.5H266.4z"/>
		</defs>
		<clipPath id="SVGID_2_">
			<use xlink:href="#SVGID_1_"  style="overflow:visible;"/>
		</clipPath>
		<g class="st2">
			<defs>
				<rect id="SVGID_3_" x="217.5" y="-12.1" width="97.4" height="138.7"/>
			</defs>
			<clipPath id="SVGID_4_">
				<use xlink:href="#SVGID_3_"  style="overflow:visible;"/>
			</clipPath>
			<g style="clip-path:url(#SVGID_4_);">
				
					<image style="overflow:visible;" width="55" height="79" xlink:href="5B79D1AD0CB61F9B.jpg"  transform="matrix(1.7716 0 0 1.7551 217.46 -12.1182)">
				</image>
			</g>
		</g>
	</g>
</g>
</svg>
